<svg xmlns="http://www.w3.org/2000/svg" width="36" height="28" fill="none" viewBox="0 0 36 28">
  <path fill="#fff" d="M25.729 17.61h-1.626l-.576-.432c2.017-1.825 3.231-4.195 3.231-6.772C26.758 4.659 20.768 0 13.38 0 5.99 0 0 4.659 0 10.406c0 5.747 5.99 10.406 13.38 10.406 3.313 0 6.36-.945 8.706-2.514l.556.449v1.264L32.933 28 36 25.615 25.729 17.61Zm-12.35 0c-5.125 0-9.262-3.218-9.262-7.204 0-3.986 4.137-7.204 9.262-7.204 5.125 0 9.263 3.218 9.263 7.204 0 3.986-4.138 7.204-9.263 7.204Z"/>
</svg>
